<?xml version="1.0" encoding="UTF-8"?><svg xmlns="http://www.w3.org/2000/svg" xmlns:xlink="http://www.w3.org/1999/xlink" version="1.1" id="Layer_1" x="0px" y="0px" viewBox="0 0 24 24" xml:space="preserve"><path d="M18 18a.5.5 0 0 1-.49-.401c-.788-3.891-2.175-6.045-3.291-7.776-.285-.443-.551-.855-.783-1.258a5.384 5.384 0 0 1-.847-2.166A4.915 4.915 0 0 1 12.5 5.5C12.5 2.467 14.967 0 18 0s5.5 2.467 5.5 5.5c0 .283-.029.572-.091.908a5.414 5.414 0 0 1-.866 2.189c-.211.371-.477.783-.762 1.226-1.115 1.731-2.502 3.885-3.291 7.776A.5.5 0 0 1 18 18zm0-17a4.505 4.505 0 0 0-4.5 4.5c0 .221.023.452.074.728.111.675.35 1.279.709 1.806.244.422.501.82.777 1.248.956 1.483 2.104 3.266 2.94 6.125.836-2.859 1.984-4.641 2.94-6.125.275-.428.533-.826.756-1.216.38-.559.618-1.164.728-1.83.053-.284.076-.515.076-.736C22.5 3.019 20.481 1 18 1zm0 7c-1.378 0-2.5-1.122-2.5-2.5S16.622 3 18 3s2.5 1.122 2.5 2.5S19.378 8 18 8zm0-4c-.827 0-1.5.673-1.5 1.5S17.173 7 18 7s1.5-.673 1.5-1.5S18.827 4 18 4z"/><path d="M20 24H3a2.503 2.503 0 0 1-2.5-2.5v-16C.5 4.122 1.622 3 3 3h10a.5.5 0 0 1 0 1H3c-.827 0-1.5.673-1.5 1.5v16c0 .827.673 1.5 1.5 1.5h17c.827 0 1.5-.673 1.5-1.5V9a.5.5 0 0 1 1 0v12.5c0 1.378-1.122 2.5-2.5 2.5z"/><path d="M2 23a.5.5 0 0 1-.354-.853l12.5-12.5a.5.5 0 0 1 .707.707l-12.5 12.5A.498.498 0 0 1 2 23z"/><path d="M21 23a.502.502 0 0 1-.354-.146l-9.5-9.5a.5.5 0 0 1 .707-.707l9.5 9.5A.5.5 0 0 1 21 23z"/><path d="M5 9c-1.103 0-2-.897-2-2s.897-2 2-2 2 .897 2 2-.897 2-2 2zm0-3c-.551 0-1 .449-1 1s.449 1 1 1 1-.449 1-1-.449-1-1-1z"/><path d="M7 6H5a.5.5 0 0 1 0-1h2a.5.5 0 0 1 0 1z"/><path d="M5 13c-1.725 0-2.5-1.169-2.5-2 0-.935.888-1.566 2.642-1.881A1.413 1.413 0 0 1 5 8.5a.5.5 0 0 1 1 0c0 .227.207.442.547.771.425.411.953.921.953 1.729 0 1.758-1.202 2-2.5 2zm.88-2.982c-1.752.22-2.38.662-2.38.982 0 .198.267 1 1.5 1 1.433 0 1.5-.343 1.5-1 0-.35-.233-.608-.62-.982z"/><metadata><rdf:RDF xmlns:rdf="http://www.w3.org/1999/02/22-rdf-syntax-ns#" xmlns:rdfs="http://www.w3.org/2000/01/rdf-schema#" xmlns:dc="http://purl.org/dc/elements/1.1/"><rdf:Description about="https://iconscout.com/legal#licenses" dc:title="google,maps" dc:description="google,maps" dc:publisher="Iconscout" dc:date="2018-01-03" dc:format="image/svg+xml" dc:language="en"><dc:creator><rdf:Bag><rdf:li>Icon 54</rdf:li></rdf:Bag></dc:creator></rdf:Description></rdf:RDF></metadata></svg>