<?xml version="1.0" encoding="UTF-8"?><svg xmlns="http://www.w3.org/2000/svg" xmlns:xlink="http://www.w3.org/1999/xlink" width="72px" height="72px" viewBox="0 0 72 72" version="1.1"><title>soundcloud</title><defs><linearGradient x1="50%" y1="0%" x2="50%" y2="100%" id="linearGradient-1"><stop stop-color="#FE9B00" offset="0%"/><stop stop-color="#FE5D00" offset="49.6771365%"/><stop stop-color="#FF1E00" offset="100%"/></linearGradient></defs><g id="providers-list" stroke="none" stroke-width="1" fill="none" fill-rule="evenodd"><g id="soundcloud"><rect id="Rectangle-1" fill="url(#linearGradient-1)" x="0" y="0" width="72" height="72" rx="4"/><path d="M55.017 48c-4.47-.003-18.237-.01-18.252-.012-.423-.045-.76-.42-.765-.87V23.745c.005-.43.147-.65.682-.866a12.24 12.24 0 0 1 4.531-.88c6.267 0 11.45 4.794 12.356 11.046A6.213 6.213 0 0 1 57 32c3.866 0 7 3.656 7 8.166s-3.134 8.165-7 8.165A6.08 6.08 0 0 1 55.017 48zM8.944 37.79c.168 0 .307.097.333.237l.723 3.38-.723 3.324c-.027.14-.164.236-.333.236-.174 0-.312-.097-.334-.237L8 41.408l.61-3.38c.022-.14.16-.239.334-.239zm4.294-1.848L14 41.408l-.763 5.345a.285.285 0 0 1-.283.246.283.283 0 0 1-.284-.247L12 41.408l.67-5.466a.284.284 0 0 1 .284-.245c.144 0 .26.1.284.245zm7.78-5.041c.252 0 .46.2.475.456l.557 10.055-.557 6.5v-.003a.481.481 0 0 1-.476.456.477.477 0 0 1-.475-.455l-.492-6.498.492-10.055a.478.478 0 0 1 .475-.456zm-4.057 3.495c.2 0 .366.15.383.35L18 41.41l-.656 6.445a.383.383 0 0 1-.383.35.38.38 0 0 1-.384-.35L16 41.41l.577-6.663a.381.381 0 0 1 .384-.351zm8.013 13.968a.567.567 0 0 1-.562-.558L24 41.415l.412-13.386a.568.568 0 0 1 .562-.56.57.57 0 0 1 .562.56L26 41.416l-.465 6.388a.57.57 0 0 1-.561.56zm8.01.03c-.388 0-.708-.345-.715-.765L32 41.414l.27-15.455c.006-.425.326-.77.714-.77.387 0 .708.346.714.77L34 41.419l-.302 6.206v.005-.005c-.007.424-.327.77-.714.77zm-4.004-.024c-.352 0-.634-.293-.641-.662L28 41.418l.338-13.485c.008-.373.29-.665.641-.665.35 0 .63.292.64.665L30 41.417l-.38 6.292v-.005c-.01.373-.291.666-.64.666z" id="Shape" fill="#FFF"/></g></g><metadata><rdf:RDF xmlns:rdf="http://www.w3.org/1999/02/22-rdf-syntax-ns#" xmlns:rdfs="http://www.w3.org/2000/01/rdf-schema#" xmlns:dc="http://purl.org/dc/elements/1.1/"><rdf:Description about="https://iconscout.com/legal#licenses" dc:title="soundcloud" dc:description="soundcloud" dc:publisher="Iconscout" dc:date="2017-09-26" dc:format="image/svg+xml" dc:language="en"><dc:creator><rdf:Bag><rdf:li>Luc Chaffard</rdf:li></rdf:Bag></dc:creator></rdf:Description></rdf:RDF></metadata></svg>