<?xml version="1.0" encoding="UTF-8"?><svg xmlns="http://www.w3.org/2000/svg" xmlns:xlink="http://www.w3.org/1999/xlink" version="1.1" id="Layer_1" x="0px" y="0px" viewBox="0 0 24 24" xml:space="preserve"><path d="M21.011 4.102c-.091-.119-.189-.215-.286-.315C18.536 1.462 15.439 0 12 0 5.383 0 0 5.383 0 12s5.383 12 12 12 12-5.383 12-12c0-3.025-1.134-5.785-2.989-7.898zM12 1c2.392 0 4.601.776 6.408 2.077C17.73 3.26 17 3.839 17 5.5c0 .705.514 1.578 1.109 2.588.794 1.349 1.782 3.028 1.412 4.269-.011.036-.008.072-.01.108l-1.863 5.856-3.586-11.203a4.16 4.16 0 0 0 .596-.144.5.5 0 1 0-.316-.948c-.694.231-1.904.224-2.632.224h-.42c-.723 0-1.938.007-2.631-.225a.5.5 0 0 0-.317.949c.347.116.767.176 1.195.216l1.909 5.38L9.545 18 6.062 7.118a4.23 4.23 0 0 0 .596-.144.5.5 0 1 0-.316-.948c-.693.231-1.905.233-2.634.224H3.5c-.352 0-.611-.035-.815-.073C4.632 3.074 8.074 1 12 1zM1 12c0-1.444.287-2.82.795-4.084l4.857 13.688C3.284 19.721 1 16.124 1 12zm8.004 10.575l2.976-8.502 3.017 8.502c-.955.27-1.957.425-2.997.425s-2.042-.155-2.996-.425zm8.72-1.2c.649-2.035 2.412-7.567 3.252-10.224.509-1.608.781-2.983.83-4.107A10.902 10.902 0 0 1 23 12c0 3.967-2.118 7.44-5.276 9.375z"/><metadata><rdf:RDF xmlns:rdf="http://www.w3.org/1999/02/22-rdf-syntax-ns#" xmlns:rdfs="http://www.w3.org/2000/01/rdf-schema#" xmlns:dc="http://purl.org/dc/elements/1.1/"><rdf:Description about="https://iconscout.com/legal#licenses" dc:title="wordpress" dc:description="wordpress" dc:publisher="Iconscout" dc:date="2018-01-05" dc:format="image/svg+xml" dc:language="en"><dc:creator><rdf:Bag><rdf:li>Icon 54</rdf:li></rdf:Bag></dc:creator></rdf:Description></rdf:RDF></metadata></svg>